<?xml version="1.0" encoding="utf-8"?>
<!-- Generator: Adobe Illustrator 26.0.1, SVG Export Plug-In . SVG Version: 6.00 Build 0)  -->
<svg version="1.1" id="Layer_1" xmlns="http://www.w3.org/2000/svg" xmlns:xlink="http://www.w3.org/1999/xlink" x="0px" y="0px"
	 viewBox="0 0 1086.26 222.26" style="enable-background:new 0 0 1086.26 222.26;" xml:space="preserve">
<style type="text/css">
	.st0{fill:#EE4423;}
</style>
<g>
	<g>
		<g>
			<g>
				<path class="st0" d="M324.78,158.74c-7.59,0-14.12-1.19-19.57-3.57c-5.45-2.38-10.45-5.99-14.99-10.83l13.35-12.64
					c2.97,3.25,6.26,5.78,9.88,7.57c3.62,1.8,7.83,2.69,12.63,2.69c4.36,0,7.74-0.75,10.14-2.25c2.4-1.5,3.6-3.59,3.6-6.26
					c0-2.42-0.79-4.38-2.36-5.88c-1.57-1.5-3.64-2.8-6.22-3.88c-2.57-1.08-5.41-2.13-8.51-3.13c-3.1-1-6.17-2.15-9.23-3.44
					c-3.06-1.29-5.87-2.92-8.44-4.88c-2.57-1.96-4.65-4.42-6.22-7.39c-1.57-2.96-2.36-6.7-2.36-11.21c0-5.42,1.37-10.1,4.12-14.02
					c2.75-3.92,6.56-6.91,11.45-8.95c4.89-2.04,10.51-3.07,16.88-3.07c6.46,0,12.37,1.08,17.74,3.25c5.37,2.17,9.79,5.13,13.28,8.89
					l-13.35,12.65c-2.79-2.75-5.61-4.8-8.44-6.13c-2.84-1.33-6.04-2-9.62-2c-3.58,0-6.41,0.65-8.51,1.94
					c-2.09,1.3-3.14,3.15-3.14,5.57c0,2.25,0.79,4.07,2.36,5.45c1.57,1.38,3.64,2.57,6.22,3.57c2.57,1,5.41,2,8.51,3
					c3.1,1,6.17,2.17,9.23,3.51c3.05,1.34,5.87,3.03,8.44,5.07c2.57,2.05,4.65,4.63,6.22,7.76c1.57,3.13,2.36,6.99,2.36,11.58
					c0,8.43-3.14,15.04-9.42,19.84C344.54,156.34,335.86,158.74,324.78,158.74z"/>
				<path class="st0" d="M364.96,157.36V96.51h20.03v60.85H364.96z M406.98,157.36v-34.68c0-3.17-1.03-5.74-3.08-7.7
					c-2.05-1.96-4.65-2.94-7.79-2.94c-2.18,0-4.1,0.44-5.76,1.31c-1.66,0.88-2.97,2.13-3.93,3.76c-0.96,1.63-1.44,3.49-1.44,5.57
					l-7.72-3.63c0-4.76,1.09-8.93,3.27-12.52c2.18-3.59,5.21-6.36,9.1-8.33c3.88-1.96,8.27-2.94,13.15-2.94
					c4.71,0,8.88,1.06,12.5,3.19c3.62,2.13,6.48,4.95,8.57,8.45c2.09,3.5,3.14,7.35,3.14,11.52v38.94H406.98z"/>
				<path class="st0" d="M459.85,158.62c-5.85,0-11.06-1.38-15.64-4.13c-4.58-2.75-8.2-6.51-10.86-11.27
					c-2.66-4.76-3.99-10.18-3.99-16.28c0-6.09,1.33-11.52,3.99-16.28c2.66-4.76,6.28-8.51,10.86-11.27
					c4.58-2.75,9.79-4.13,15.64-4.13c4.27,0,8.14,0.79,11.58,2.38c3.45,1.59,6.26,3.78,8.44,6.57c2.18,2.8,3.4,5.99,3.67,9.58v26.29
					c-0.26,3.59-1.46,6.78-3.6,9.58c-2.14,2.8-4.95,4.99-8.44,6.57C468.01,157.82,464.13,158.62,459.85,158.62z M463.91,141.34
					c4.27,0,7.72-1.36,10.34-4.07c2.62-2.71,3.93-6.15,3.93-10.33c0-2.84-0.59-5.34-1.77-7.51c-1.18-2.17-2.84-3.86-4.97-5.07
					c-2.14-1.21-4.6-1.82-7.4-1.82c-2.79,0-5.26,0.61-7.4,1.82c-2.14,1.21-3.84,2.9-5.1,5.07c-1.27,2.17-1.9,4.68-1.9,7.51
					c0,2.75,0.61,5.22,1.83,7.39c1.22,2.17,2.92,3.88,5.1,5.13C458.76,140.71,461.21,141.34,463.91,141.34z M477.39,157.36v-16.4
					l3.01-14.77l-3.01-14.77v-14.9h19.63v60.85H477.39z"/>
				<path class="st0" d="M504.62,183.03V96.51h20.03v15.65l-3.27,14.77l3.01,14.77v41.32H504.62z M541.26,158.62
					c-4.28,0-8.2-0.79-11.78-2.38c-3.58-1.58-6.5-3.78-8.77-6.57c-2.27-2.79-3.58-5.99-3.93-9.58v-25.67
					c0.35-3.59,1.66-6.84,3.93-9.77c2.27-2.92,5.19-5.22,8.77-6.89c3.58-1.67,7.5-2.5,11.78-2.5c6.02,0,11.36,1.38,16.03,4.13
					c4.67,2.75,8.33,6.51,10.99,11.27c2.66,4.76,3.99,10.18,3.99,16.28c0,6.09-1.33,11.52-3.99,16.28
					c-2.66,4.76-6.33,8.51-10.99,11.27C552.63,157.24,547.29,158.62,541.26,158.62z M537.6,141.34c2.88,0,5.39-0.63,7.53-1.88
					c2.14-1.25,3.82-2.96,5.04-5.13c1.22-2.17,1.83-4.63,1.83-7.39c0-2.84-0.61-5.34-1.83-7.51c-1.22-2.17-2.9-3.86-5.04-5.07
					c-2.14-1.21-4.6-1.82-7.4-1.82c-2.79,0-5.26,0.61-7.4,1.82c-2.14,1.21-3.82,2.9-5.04,5.07c-1.22,2.17-1.83,4.68-1.83,7.51
					c0,2.75,0.59,5.22,1.77,7.39c1.18,2.17,2.86,3.88,5.04,5.13C532.45,140.71,534.89,141.34,537.6,141.34z"/>
				<path class="st0" d="M580.4,157.36V71.22h6.81l38.87,60.97h-4.84l38.87-60.97h6.81v86.14h-9.69V87.25l2.23,0.5l-32.46,50.96
					h-6.81l-32.46-50.96l2.23-0.5v70.11H580.4z"/>
				<path class="st0" d="M709.45,158.62c-6.2,0-11.74-1.33-16.62-4.01c-4.89-2.67-8.75-6.34-11.58-11.02
					c-2.84-4.67-4.25-9.93-4.25-15.78c0-5.76,1.4-10.96,4.19-15.59c2.79-4.63,6.59-8.28,11.39-10.96c4.8-2.67,10.16-4.01,16.1-4.01
					c5.58,0,10.54,1.21,14.86,3.63c4.32,2.42,7.72,5.78,10.21,10.08c2.49,4.3,3.73,9.25,3.73,14.84c0,0.67-0.04,1.44-0.13,2.32
					c-0.09,0.88-0.26,1.9-0.52,3.07h-53.27v-7.51h48.3l-3.27,2.75c0.09-4.34-0.68-8.08-2.29-11.21c-1.62-3.13-3.93-5.55-6.94-7.26
					c-3.01-1.71-6.65-2.57-10.93-2.57c-4.45,0-8.33,0.92-11.65,2.75c-3.32,1.84-5.91,4.4-7.79,7.7c-1.88,3.3-2.81,7.2-2.81,11.71
					c0,4.51,0.98,8.47,2.95,11.89c1.96,3.42,4.71,6.09,8.25,8.01c3.53,1.92,7.61,2.88,12.24,2.88c3.75,0,7.2-0.65,10.34-1.94
					c3.14-1.29,5.8-3.23,7.98-5.82l5.89,5.76c-2.88,3.25-6.44,5.78-10.67,7.58C718.9,157.72,714.34,158.62,709.45,158.62z"/>
				<path class="st0" d="M744.92,157.36V98.52h9.16v58.84H744.92z M789.69,157.36v-34.56c0-5.17-1.59-9.37-4.78-12.58
					c-3.19-3.21-7.39-4.82-12.63-4.82c-3.58,0-6.72,0.75-9.42,2.25c-2.71,1.5-4.84,3.55-6.41,6.13c-1.57,2.59-2.36,5.55-2.36,8.89
					l-4.19-2.25c0-4.42,1.09-8.39,3.27-11.89c2.18-3.5,5.12-6.26,8.83-8.26c3.71-2,7.96-3,12.76-3c4.71,0,8.9,1.09,12.57,3.25
					c3.67,2.17,6.52,5.09,8.57,8.76c2.05,3.67,3.08,7.68,3.08,12.02v36.06H789.69z"/>
				<path class="st0" d="M833.93,158.62c-4.97,0-9.42-1.11-13.35-3.32c-3.93-2.21-7-5.24-9.23-9.08c-2.22-3.84-3.34-8.35-3.34-13.52
					V98.52h9.29v33.8c0,3.59,0.67,6.72,2.03,9.39c1.35,2.67,3.29,4.76,5.82,6.26c2.53,1.5,5.45,2.25,8.77,2.25
					c5.15,0,9.23-1.63,12.24-4.88c3.01-3.25,4.52-7.59,4.52-13.02v-33.8h9.16v34.18c0,5.09-1.09,9.6-3.27,13.52
					c-2.18,3.92-5.24,6.97-9.16,9.14C843.48,157.53,838.99,158.62,833.93,158.62z"/>
			</g>
		</g>
		<g>
			<path class="st0" d="M938.55,29.84c12.74,0,24.34,9.21,29.63,23.02l26.77,70.84c7.59,20.19,0.71,33.65-17.32,33.65h-56.26
				l16.03-30.99h28.49l-27.2-72.44l-38.94,103.43h-30.06L909.2,52.87C914.5,39.05,926.24,29.84,938.55,29.84z"/>
			<path class="st0" d="M1008.12,33.39h27.2v123.98h-27.2V33.39z"/>
		</g>
	</g>
	<g>
		<path class="st0" d="M136.6,214.57l-74.07-48.49v-61.75l48.59-20.61V49.03l92.75-39.34l72.08,39.65l0.86,59.03l-49,27.23
			l0.4,28.08L136.6,214.57z M71.72,161.12l65.28,42.73l81.97-45.54l-0.4-28.08l49-27.23l-0.72-48.19l-63.49-34.92L120.3,55.11v34.69
			l-48.59,20.61V161.12z"/>
		<polygon class="st0" points="136.79,151.27 161.84,138.49 185.38,153.9 185.38,95.97 271.4,52.07 272.18,105.68 222.81,133.11 
			223.59,160.99 136.79,209.21 		"/>
	</g>
</g>
</svg>
